<svg viewBox="0 0 49 40" fill="none" xmlns="http://www.w3.org/2000/svg">
<path d="M1.11246 21.3481L6.68567 17.8543C7.97721 17.0448 9.87556 17.1958 10.9254 18.1913C11.9757 19.1871 11.7798 20.6509 10.4883 21.4603L7.79121 23.1512L27.3731 35.8732C28.6647 36.6827 28.8605 38.1464 27.8102 39.1419C27.2148 39.7071 26.346 40 25.4704 40C24.8024 40 24.1295 39.8296 23.571 39.4792L1.11246 24.9542C0.408964 24.5129 0 23.8507 0 23.1512C0 22.4516 0.408964 21.7898 1.11246 21.3481Z" fill="#68dc0e"/>
<path d="M25.8605 7.32817e-05C27.4604 0.00996334 28.7475 1.018 28.7347 2.25197L28.4855 37.7835C28.4727 39.0175 27.1649 40.0095 25.565 39.9996C25.1595 39.9974 24.7747 39.9308 24.4254 39.8129C23.3968 39.4648 22.681 38.6694 22.6903 37.7478L22.94 2.21659C22.9528 0.982613 24.2601 -0.00981677 25.8605 7.32817e-05Z" fill="#68dc0e"/>
<path d="M38.5792 24.4414L40.6374 23.1512L33.3064 18.555C32.0149 17.7455 31.8195 16.2818 32.8693 15.2863C33.9191 14.2901 35.8175 14.1394 37.109 14.9489L47.3156 21.3481C48.0196 21.7898 48.4281 22.4516 48.4281 23.1512C48.4281 23.8507 48.0196 24.513 47.3156 24.9542L42.3818 28.0475C41.8228 28.3979 41.1504 28.5682 40.4824 28.5682C39.6063 28.5682 38.7375 28.2754 38.1421 27.7105C37.0923 26.7146 37.2881 25.2513 38.5792 24.4414Z" fill="#68dc0e"/>
</svg>
